<svg xmlns="http://www.w3.org/2000/svg" width="460" height="252" viewBox="0 0 460 252" role="img" font-family="-apple-system,BlinkMacSystemFont,'Segoe UI',Roboto,'Apple SD Gothic Neo','Malgun Gothic',sans-serif"><defs><linearGradient id="bgg" x1="0" y1="0" x2="0" y2="1"><stop offset="0" stop-color="#161b22"/><stop offset="1" stop-color="#0d1117"/></linearGradient></defs><rect x="0.5" y="0.5" width="459" height="251" rx="14" fill="url(#bgg)" stroke="#30363d"/><text x="20" y="30" font-family="-apple-system,BlinkMacSystemFont,'Segoe UI',Roboto,'Apple SD Gothic Neo','Malgun Gothic',sans-serif" font-size="13" font-weight="700" fill="#7d8590" letter-spacing="0.5">COURSE LADDER</text><text x="20" y="44" font-size="11.5" font-weight="500" fill="#7d8590">Introduction to Coding</text><text x="440" y="44" text-anchor="end" font-size="11" fill="#7d8590">36/103 · 35%</text><rect x="20" y="48" width="420" height="7" rx="3.5" fill="#21262d"/><rect x="20" y="48" width="146.8" height="7" rx="3.5" fill="#2ee6d6"/><text x="20" y="72" font-size="11.5" font-weight="500" fill="#7d8590">Foundations of Coding</text><text x="440" y="72" text-anchor="end" font-size="11" fill="#7d8590">0/396 · 0%</text><rect x="20" y="76" width="420" height="7" rx="3.5" fill="#21262d"/><text x="20" y="100" font-size="11.5" font-weight="700" fill="#e6edf3">Algorithmic Foundations<tspan fill="#2ee6d6" font-weight="700"> ◀</tspan></text><text x="440" y="100" text-anchor="end" font-size="11" fill="#7d8590">88/241 · 37%</text><rect x="20" y="104" width="420" height="7" rx="3.5" fill="#21262d"/><rect x="20" y="104" width="153.4" height="7" rx="3.5" fill="#58a6ff"/><text x="20" y="128" font-size="11.5" font-weight="500" fill="#7d8590">Data Structures Fundame…</text><text x="440" y="128" text-anchor="end" font-size="11" fill="#7d8590">0/242 · 0%</text><rect x="20" y="132" width="420" height="7" rx="3.5" fill="#21262d"/><text x="20" y="156" font-size="11.5" font-weight="500" fill="#7d8590">Practical Algorithm Des…</text><text x="440" y="156" text-anchor="end" font-size="11" fill="#7d8590">0/130 · 0%</text><rect x="20" y="160" width="420" height="7" rx="3.5" fill="#21262d"/><text x="20" y="184" font-size="11.5" font-weight="500" fill="#7d8590">Advanced Algorithms I</text><text x="440" y="184" text-anchor="end" font-size="11" fill="#7d8590">0/176 · 0%</text><rect x="20" y="188" width="420" height="7" rx="3.5" fill="#21262d"/><text x="20" y="212" font-size="11.5" font-weight="500" fill="#7d8590">Advanced Algorithms II</text><text x="440" y="212" text-anchor="end" font-size="11" fill="#7d8590">0/149 · 0%</text><rect x="20" y="216" width="420" height="7" rx="3.5" fill="#21262d"/></svg>