<svg xmlns="http://www.w3.org/2000/svg" width="460" height="160" viewBox="0 0 460 160" role="img" font-family="-apple-system,BlinkMacSystemFont,'Segoe UI',Roboto,'Apple SD Gothic Neo','Malgun Gothic',sans-serif"><defs><linearGradient id="bgg" x1="0" y1="0" x2="0" y2="1"><stop offset="0" stop-color="#161b22"/><stop offset="1" stop-color="#0d1117"/></linearGradient></defs><rect x="0.5" y="0.5" width="459" height="159" rx="14" fill="url(#bgg)" stroke="#30363d"/><text x="20" y="30" font-family="-apple-system,BlinkMacSystemFont,'Segoe UI',Roboto,'Apple SD Gothic Neo','Malgun Gothic',sans-serif" font-size="13" font-weight="700" fill="#7d8590" letter-spacing="0.5">DAILY XP</text><text x="440" y="30" text-anchor="end" font-size="11" fill="#7d8590">최근 10일 · <tspan fill="#d29922">goal 140</tspan></text><line x1="20" y1="108.6" x2="440" y2="108.6" stroke="#d29922" stroke-width="1" stroke-dasharray="4 3" opacity="0.75"/><rect x="28.4" y="67.1" width="25.2" height="60.9" rx="3" fill="#3fb950"/><rect x="70.4" y="125.2" width="25.2" height="2.8" rx="3" fill="#373e47"/><rect x="112.4" y="128.0" width="25.2" height="2.0" rx="3" fill="#373e47"/><rect x="154.4" y="119.7" width="25.2" height="8.3" rx="3" fill="#373e47"/><rect x="196.4" y="60.2" width="25.2" height="67.8" rx="3" fill="#3fb950"/><rect x="238.4" y="107.2" width="25.2" height="20.8" rx="3" fill="#3fb950"/><rect x="280.4" y="107.2" width="25.2" height="20.8" rx="3" fill="#3fb950"/><rect x="322.4" y="96.2" width="25.2" height="31.8" rx="3" fill="#3fb950"/><rect x="364.4" y="118.3" width="25.2" height="9.7" rx="3" fill="#373e47"/><rect x="406.4" y="107.2" width="25.2" height="20.8" rx="3" fill="#3fb950"/><rect x="404.9" y="105.7" width="28.2" height="23.8" rx="4" fill="none" stroke="#2ee6d6" stroke-width="1.5"/></svg>